<?xml version="1.0" encoding="UTF-8"?>
<!-- Generator: visioncortex VTracer 0.6.3 -->
<svg version="1.1" xmlns="http://www.w3.org/2000/svg" width="1280" height="751">
<path d="M0 0 C422.4 0 844.8 0 1280 0 C1280 247.83 1280 495.66 1280 751 C857.6 751 435.2 751 0 751 C0 503.17 0 255.34 0 0 Z " fill="#FBFCFE" transform="translate(0,0)"/>
<path d="M0 0 C3.24 1.13 4.69 2.65 6.94 5.21 C7.65 5.99 8.36 6.77 9.09 7.57 C10.57 9.9 10.57 9.9 10.5 11.89 C9.33 14.41 7.89 16.53 6.25 18.77 C5.63 19.64 5 20.52 4.36 21.41 C3.77 22.23 3.17 23.05 2.57 23.9 C1.21 25.89 -0.11 27.89 -1.43 29.9 C-6.87 26.75 -10.91 22.55 -15.26 18.04 C-17.24 15.86 -17.24 15.86 -19.43 14.9 C-15.1 20.08 -10.67 24.63 -5.43 28.9 C-6.42 30.38 -6.42 30.38 -7.43 31.9 C-7.1 32.56 -6.77 33.22 -6.43 33.9 C-7.48 34.44 -8.53 34.98 -9.61 35.54 C-23.28 43.16 -33.41 53.34 -44.09 64.64 C-44.97 65.56 -44.97 65.56 -45.87 66.5 C-46.99 67.67 -48.1 68.86 -49.2 70.05 C-50.71 71.63 -50.71 71.63 -53.43 73.9 C-55.8 73.75 -55.8 73.75 -57.43 72.9 C-57.02 73.71 -57.02 73.71 -56.6 74.53 C-56.43 76.9 -56.43 76.9 -58.63 79.66 C-59.69 80.72 -60.76 81.77 -61.85 82.8 C-62.41 83.36 -62.98 83.92 -63.56 84.5 C-65.38 86.29 -67.22 88.06 -69.06 89.84 C-70.27 91.03 -71.49 92.22 -72.7 93.41 C-74.95 95.62 -77.2 97.82 -79.46 100.01 C-83.72 104.14 -87.76 108.24 -91.43 112.9 C-92.41 113.92 -93.41 114.92 -94.43 115.9 C-94.88 116.36 -95.33 116.83 -95.8 117.3 C-98.02 119.47 -100.46 121.31 -102.91 123.2 C-104.93 125.45 -105.31 126.88 -105.43 129.9 C-104.27 132.42 -104.27 132.42 -102.5 134.71 C-101.93 135.5 -101.36 136.29 -100.78 137.11 C-100.34 137.7 -99.89 138.29 -99.43 138.9 C-99.76 139.56 -100.09 140.22 -100.43 140.9 C-102.08 140.24 -103.73 139.58 -105.43 138.9 C-104.18 141.41 -102.93 141.77 -100.43 142.9 C-105.22 147.89 -108.41 150.4 -115.39 150.68 C-118.66 151.03 -120.26 152.53 -122.43 154.9 C-124.01 157.82 -124.46 160.09 -124.87 163.4 C-127.06 177.02 -143.5 189.72 -152.65 199.09 C-154.51 201.01 -156.35 202.93 -158.17 204.88 C-174.11 221.84 -174.11 221.84 -180.87 223.25 C-189.41 223.45 -196.08 220.56 -202.43 214.9 C-203.79 213.25 -205.13 211.59 -206.43 209.9 C-207.11 209.3 -207.79 208.7 -208.5 208.09 C-212.07 204.05 -213.57 199.19 -213.87 193.84 C-212.99 185.9 -208.32 181.44 -202.62 176.4 C-197.5 171.74 -192.49 167.01 -187.62 162.09 C-187.12 161.59 -186.62 161.08 -186.1 160.56 C-184.1 158.54 -182.1 156.51 -180.11 154.48 C-162.78 136.78 -162.78 136.78 -153.43 133.9 C-152.42 133.94 -151.41 133.98 -150.37 134.02 C-145.15 133.8 -141.88 129.54 -138.43 125.9 C-138.78 125.32 -139.13 124.74 -139.5 124.15 C-140.62 121.44 -140.4 120.61 -139.43 117.9 C-136.87 114.6 -133.51 111.08 -129.43 109.9 C-124.37 110.04 -120.51 113.19 -116.43 115.9 C-110.85 111.13 -105.55 106.17 -100.37 100.96 C-99.7 100.3 -99.03 99.63 -98.35 98.95 C-95.07 95.66 -91.9 92.33 -88.88 88.8 C-85.61 85.02 -82.08 81.68 -78.37 78.34 C-72.73 73.16 -67.42 67.8 -62.27 62.13 C-58.58 58.1 -54.76 54.23 -50.83 50.43 C-40.82 40.74 -31.5 31.52 -24.52 19.3 C-21.13 13.77 -16.66 10.15 -11.48 6.39 C-10.15 5.42 -8.83 4.41 -7.54 3.37 C-3.09 -0.13 -3.09 -0.13 0 0 Z " fill="#321687" transform="translate(385.43359375,259.1015625)"/>
<path d="M0 0 C0.78 0.62 1.57 1.24 2.38 1.88 C3.37 2.54 4.36 3.19 5.38 3.88 C5.38 4.54 5.38 5.19 5.38 5.88 C6.26 6.23 6.26 6.23 7.16 6.59 C14.45 10.81 18.95 21.55 21.06 29.43 C23.31 40.14 23.47 50.63 19.38 60.88 C19.08 61.67 18.79 62.47 18.48 63.29 C14.62 72.36 5.88 82.43 -3.39 86.21 C-20.59 91.34 -35.55 91.52 -51.62 82.88 C-62.57 75.73 -69.25 66.53 -72.62 53.88 C-74.75 40.46 -73.46 26.17 -66.09 14.43 C-51.29 -5.46 -22.06 -14.35 0 0 Z " fill="#2C1084" transform="translate(903.625,328.125)"/>
<path d="M0 0 C0.78 -0.01 1.55 -0.02 2.35 -0.03 C3.18 -0.02 4 -0.02 4.86 -0.01 C6.16 -0.01 6.16 -0.01 7.49 -0.02 C9.33 -0.02 11.17 -0.02 13.02 -0 C15.79 0.01 18.56 -0 21.33 -0.02 C48.63 -0.06 48.63 -0.06 58.87 7.93 C65.77 14.82 69 21.75 69.14 31.51 C69.04 39.51 68.28 46.31 62.58 52.26 C59.55 54.99 56.37 57.27 52.89 59.39 C53.52 62.87 54.92 65.14 56.95 68.01 C59.89 72.17 59.89 72.17 59.89 74.39 C60.55 74.39 61.21 74.39 61.89 74.39 C63.29 76.4 63.29 76.4 64.83 79.08 C65.33 79.95 65.84 80.82 66.36 81.71 C66.86 82.6 67.37 83.48 67.89 84.39 C68.74 85.7 68.74 85.7 69.6 87.05 C70.89 89.39 70.89 89.39 70.64 92.14 C69.89 94.39 69.89 94.39 68.89 95.39 C66.46 95.57 64.08 95.67 61.64 95.7 C60.64 95.74 60.64 95.74 59.61 95.79 C56.21 95.83 54.09 95.51 51.14 93.77 C48.54 91.02 46.92 88.3 45.14 84.95 C41.7 78.61 37.8 72.78 33.58 66.94 C31.89 64.39 31.89 64.39 31.89 62.39 C24.63 62.39 17.37 62.39 9.89 62.39 C9.8 65.84 9.8 65.84 9.71 69.35 C9.65 71.57 9.58 73.79 9.52 76.01 C9.48 77.55 9.43 79.1 9.39 80.64 C9.34 82.86 9.27 85.07 9.21 87.29 C9.18 88.33 9.18 88.33 9.16 89.4 C9 94.27 9 94.27 7.89 95.39 C5.6 95.54 3.31 95.61 1.02 95.64 C-0.24 95.66 -1.5 95.69 -2.79 95.72 C-6.11 95.39 -6.11 95.39 -7.79 94.4 C-9.91 91.16 -9.54 87.67 -9.53 83.93 C-9.54 83.06 -9.55 82.2 -9.55 81.31 C-9.58 78.45 -9.58 75.59 -9.58 72.73 C-9.58 70.75 -9.59 68.76 -9.6 66.78 C-9.61 62.62 -9.62 58.46 -9.61 54.3 C-9.6 48.96 -9.63 43.63 -9.68 38.29 C-9.7 34.19 -9.7 30.1 -9.7 26 C-9.7 24.03 -9.71 22.06 -9.73 20.1 C-9.75 17.35 -9.74 14.6 -9.72 11.85 C-9.74 11.03 -9.75 10.22 -9.76 9.38 C-9.73 7.11 -9.73 7.11 -9.11 3.39 C-6.23 0.86 -3.8 0.01 0 0 Z " fill="#2D1084" transform="translate(558.109130859375,320.61181640625)"/>
<path d="M0 0 C1.46 1.75 1.46 1.75 2.94 4 C6.33 9.03 9.82 13.96 13.38 18.88 C13.94 19.66 14.51 20.45 15.1 21.26 C18.89 26.5 22.76 31.68 26.67 36.84 C28.52 39.35 30.33 41.88 32.11 44.44 C32.65 45.22 33.19 45.99 33.75 46.79 C34.81 48.32 35.87 49.85 36.93 51.39 C37.41 52.09 37.9 52.79 38.4 53.51 C38.83 54.13 39.26 54.76 39.7 55.4 C41.09 57.28 41.09 57.28 44 59 C44.01 58.29 44.01 57.59 44.02 56.86 C44.08 50.19 44.15 43.53 44.24 36.86 C44.28 33.43 44.32 30.01 44.35 26.58 C44.38 22.64 44.43 18.7 44.49 14.76 C44.5 12.91 44.5 12.91 44.51 11.03 C44.54 9.32 44.54 9.32 44.57 7.57 C44.58 6.57 44.59 5.56 44.6 4.52 C45.06 1.6 45.64 0.73 48 -1 C52.41 -2.47 56.85 -3.05 61.09 -0.98 C63.96 1.99 63.59 5.11 63.58 9.03 C63.59 9.85 63.6 10.67 63.62 11.51 C63.66 14.22 63.67 16.93 63.68 19.64 C63.7 21.53 63.72 23.41 63.74 25.29 C63.79 29.25 63.82 33.2 63.84 37.16 C63.87 42.22 63.92 47.27 63.98 52.33 C64.03 56.23 64.06 60.12 64.09 64.02 C64.11 65.88 64.13 67.75 64.15 69.61 C64.18 72.22 64.19 74.84 64.2 77.45 C64.21 78.6 64.21 78.6 64.23 79.77 C64.23 84.55 63.51 88.46 62 93 C48.13 94.05 48.13 94.05 43.62 91.83 C41.75 90.01 40.41 88.2 39 86 C38.38 85.08 37.75 84.17 37.11 83.23 C34.5 79.26 32.06 75.28 30 71 C29.34 71 28.68 71 28 71 C26.55 68.95 26.55 68.95 24.88 66.12 C21.95 61.4 18.78 57.12 15.27 52.83 C12.42 49.28 9.7 45.65 7 42 C6.51 41.34 6.01 40.68 5.5 40 C2 35.24 2 35.24 2 33 C1.01 33.5 1.01 33.5 0 34 C-0.02 35.09 -0.02 35.09 -0.03 36.2 C-0.13 43.01 -0.23 49.82 -0.34 56.63 C-0.39 60.14 -0.45 63.64 -0.5 67.14 C-0.55 71.17 -0.62 75.19 -0.68 79.21 C-0.71 81.11 -0.71 81.11 -0.73 83.04 C-0.75 84.2 -0.77 85.37 -0.79 86.56 C-0.81 87.59 -0.83 88.62 -0.84 89.68 C-1 92 -1 92 -2 93 C-4.29 93.15 -6.58 93.22 -8.88 93.25 C-10.13 93.28 -11.39 93.3 -12.68 93.33 C-16 93 -16 93 -17.68 91.71 C-19.96 88.75 -19.41 85.11 -19.37 81.52 C-19.38 80.66 -19.38 79.79 -19.38 78.9 C-19.39 76.04 -19.38 73.17 -19.36 70.31 C-19.36 68.32 -19.36 66.34 -19.36 64.35 C-19.36 60.19 -19.35 56.02 -19.34 51.86 C-19.31 46.51 -19.31 41.17 -19.32 35.82 C-19.32 31.72 -19.32 27.62 -19.31 23.52 C-19.3 21.55 -19.3 19.57 -19.3 17.6 C-19.3 14.85 -19.29 12.1 -19.27 9.35 C-19.28 8.53 -19.28 7.71 -19.28 6.86 C-19.23 1.23 -19.23 1.23 -17 -1 C-11.5 -2.62 -4.96 -3.17 0 0 Z " fill="#2C1083" transform="translate(751,323)"/>
<path d="M0 0 C1.2 -0.01 2.41 -0.02 3.65 -0.03 C5.6 -0.03 5.6 -0.03 7.58 -0.03 C8.93 -0.03 10.28 -0.03 11.63 -0.04 C14.46 -0.05 17.29 -0.05 20.11 -0.04 C23.73 -0.04 27.35 -0.05 30.96 -0.08 C33.75 -0.09 36.54 -0.09 39.32 -0.09 C41.3 -0.09 43.28 -0.1 45.26 -0.12 C46.47 -0.11 47.68 -0.1 48.92 -0.1 C49.98 -0.1 51.04 -0.1 52.14 -0.1 C55.74 0.37 58.43 1.68 61.03 4.27 C61.18 6.42 61.25 8.56 61.28 10.71 C61.3 11.89 61.33 13.06 61.35 14.27 C61.25 15.26 61.14 16.25 61.03 17.27 C57.81 19.42 56.9 19.54 53.19 19.59 C52.21 19.61 51.23 19.63 50.21 19.65 C49.16 19.67 48.1 19.68 47.01 19.69 C45.93 19.71 44.85 19.73 43.73 19.75 C40.27 19.81 36.8 19.85 33.34 19.9 C30.99 19.94 28.64 19.98 26.3 20.02 C20.54 20.11 14.78 20.2 9.03 20.27 C9 23.09 8.98 25.9 8.96 28.71 C8.95 29.51 8.95 30.32 8.94 31.14 C8.93 33.19 8.97 35.23 9.03 37.27 C10.55 38.8 11.96 38.44 14.09 38.48 C14.95 38.5 15.81 38.52 16.69 38.54 C17.63 38.56 18.57 38.57 19.53 38.59 C20.48 38.61 21.44 38.63 22.42 38.65 C25.47 38.72 28.53 38.78 31.59 38.84 C33.66 38.88 35.72 38.92 37.79 38.97 C42.87 39.08 47.95 39.18 53.03 39.27 C53.03 39.93 53.03 40.59 53.03 41.27 C53.69 41.27 54.35 41.27 55.03 41.27 C55.88 45.67 56.36 49.8 56.03 54.27 C54.47 56.37 53.57 57.17 50.99 57.67 C49.83 57.69 49.83 57.69 48.65 57.71 C47.32 57.74 47.32 57.74 45.98 57.77 C45.03 57.77 44.08 57.78 43.11 57.79 C42.14 57.8 41.16 57.82 40.16 57.84 C37.05 57.89 33.95 57.93 30.84 57.96 C28.73 58 26.63 58.03 24.52 58.07 C19.36 58.15 14.19 58.22 9.03 58.27 C9 61.09 8.98 63.9 8.96 66.71 C8.95 67.51 8.95 68.32 8.94 69.14 C8.93 71.19 8.97 73.23 9.03 75.27 C10.64 76.88 12.38 76.42 14.61 76.43 C15.58 76.44 16.55 76.45 17.56 76.46 C18.62 76.47 19.68 76.48 20.77 76.49 C22.99 76.51 25.21 76.54 27.43 76.57 C30.95 76.61 34.47 76.65 37.99 76.68 C41.38 76.7 44.76 76.75 48.15 76.8 C49.21 76.8 50.26 76.8 51.35 76.81 C52.33 76.82 53.31 76.84 54.32 76.86 C55.18 76.87 56.04 76.87 56.93 76.88 C57.62 77.01 58.31 77.14 59.03 77.27 C61.41 80.86 61.29 82.59 61.28 86.84 C61.28 88.57 61.28 88.57 61.29 90.34 C61.03 93.27 61.03 93.27 59.03 95.27 C56.26 95.54 56.26 95.54 52.7 95.55 C51.72 95.56 51.72 95.56 50.73 95.56 C48.58 95.58 46.43 95.58 44.28 95.58 C42.79 95.58 41.3 95.58 39.8 95.59 C36.67 95.6 33.54 95.6 30.41 95.59 C26.4 95.58 22.39 95.6 18.38 95.62 C15.29 95.64 12.21 95.64 9.13 95.64 C7.65 95.64 6.17 95.64 4.69 95.65 C2.62 95.67 0.55 95.66 -1.52 95.65 C-2.69 95.65 -3.87 95.65 -5.08 95.65 C-7.97 95.27 -7.97 95.27 -9.86 94.27 C-11.68 91.02 -11.37 87.62 -11.33 84 C-11.33 82.73 -11.33 82.73 -11.34 81.44 C-11.34 78.64 -11.32 75.85 -11.3 73.06 C-11.3 71.12 -11.3 69.18 -11.3 67.24 C-11.29 63.17 -11.28 59.11 -11.26 55.04 C-11.23 49.83 -11.22 44.61 -11.21 39.4 C-11.21 35.39 -11.2 31.39 -11.19 27.38 C-11.18 25.46 -11.18 23.54 -11.17 21.61 C-11.16 18.93 -11.15 16.24 -11.14 13.55 C-11.13 12.76 -11.13 11.96 -11.13 11.14 C-11.11 7.92 -11 5.35 -9.97 2.27 C-6.75 0.04 -3.85 0.02 0 0 Z " fill="#2C1084" transform="translate(654.974365234375,320.725341796875)"/>
<path d="M0 0 C3.19 3.32 4.35 6.65 5.84 10.94 C6.44 12.58 7.04 14.22 7.65 15.85 C8.1 17.05 8.1 17.05 8.55 18.27 C9.67 21.21 10.98 24.04 12.34 26.88 C14.93 32.34 17.19 37.89 19.4 43.5 C21.6 49.08 23.83 54.59 26.4 60 C29.03 65.58 31.44 71.24 33.78 76.94 C34.14 77.79 34.49 78.65 34.86 79.53 C36.67 83.98 37.98 87.6 37.4 92.5 C35.42 94.49 31.79 93.82 29.09 93.88 C28.07 93.93 28.07 93.93 27.04 93.99 C23.59 94.05 21.8 93.86 19.18 91.56 C16.86 87.58 15.01 83.49 13.21 79.25 C12.51 77.62 11.81 75.99 11.11 74.36 C10.8 73.65 10.5 72.93 10.19 72.19 C9.52 70.51 9.52 70.51 8.4 69.5 C3.59 69.21 -1.22 69.19 -6.03 69.15 C-7.66 69.14 -9.28 69.11 -10.9 69.07 C-13.23 69.02 -15.57 69 -17.9 68.98 C-18.99 68.95 -18.99 68.95 -20.1 68.91 C-22.4 68.87 -22.4 68.87 -25.6 69.5 C-27.59 71.7 -27.59 71.7 -28.6 74.5 C-28.91 75.2 -29.23 75.89 -29.55 76.6 C-29.81 77.27 -30.08 77.95 -30.35 78.64 C-30.65 79.38 -30.95 80.12 -31.25 80.89 C-31.86 82.44 -32.47 83.98 -33.08 85.53 C-33.38 86.27 -33.67 87.01 -33.98 87.77 C-34.24 88.44 -34.5 89.11 -34.78 89.8 C-35.6 91.5 -35.6 91.5 -37.6 93.5 C-40.13 93.76 -42.5 93.87 -45.04 93.88 C-46.06 93.92 -46.06 93.92 -47.1 93.95 C-50.22 93.97 -52.18 93.81 -54.72 91.95 C-56.05 88.23 -54.62 85.52 -53.16 82.07 C-52.79 81.11 -52.79 81.11 -52.4 80.14 C-50.68 75.83 -48.74 71.63 -46.78 67.43 C-43.66 60.72 -40.77 53.93 -37.92 47.1 C-37.1 45.14 -36.28 43.17 -35.45 41.21 C-32.18 33.4 -29 25.56 -25.9 17.68 C-24.32 13.83 -22.54 10.19 -20.6 6.5 C-20.12 5.39 -19.65 4.28 -19.16 3.13 C-17.6 0.5 -17.6 0.5 -15.54 -0.87 C-10.15 -2.02 -4.91 -2.83 0 0 Z " fill="#2D1084" transform="translate(1077.59765625,322.49609375)"/>
<path d="M0 0 C3.84 1.57 6.16 4.02 9 7 C9.78 7.78 10.57 8.57 11.38 9.38 C12.67 10.67 12.67 10.67 14 12 C14.56 12.55 15.12 13.1 15.7 13.66 C18.43 16.36 21.01 19.01 23.44 22 C26.11 25.12 28.97 27.63 32.09 30.28 C34.69 32.62 36.77 35.32 39 38 C40.13 39.02 41.28 40.02 42.44 41 C47.32 45.15 51.77 49.72 56.25 54.29 C56.84 54.88 57.42 55.48 58.02 56.09 C58.55 56.62 59.07 57.16 59.61 57.71 C62.51 60.4 64.91 60.01 68.71 59.88 C77.66 59.61 85.22 59.76 92.24 65.99 C99.4 73.57 102.3 80.01 103.12 90.36 C103 93 103 93 101 96 C100.27 95.4 100.27 95.4 99.52 94.79 C97.3 92.99 95.05 91.21 92.81 89.44 C92.04 88.81 91.27 88.18 90.48 87.53 C89.73 86.94 88.98 86.35 88.21 85.75 C87.52 85.2 86.83 84.65 86.13 84.08 C84.01 82.78 84.01 82.78 81.42 83.18 C77.92 84.36 75.71 86.67 73.19 89.25 C72.69 89.73 72.18 90.21 71.67 90.7 C69.53 92.84 68.12 94.53 67.37 97.48 C68.27 101.08 70.43 103.34 72.88 106 C76.03 109.48 78.36 112.54 80 117 C80.66 117.33 81.32 117.66 82 118 C70.35 118.86 62.37 117.63 52.81 110.32 C46.39 104.5 44.77 97.85 44.02 89.45 C44 87.08 44.34 85.17 44.88 82.88 C45.01 78.63 44.95 78.43 42.28 75.53 C41.63 74.83 40.99 74.13 40.32 73.41 C35.51 68.42 30.63 63.51 25.72 58.62 C24.54 57.45 23.37 56.27 22.19 55.09 C19.11 52.02 16.03 48.95 12.95 45.88 C9.8 42.74 6.65 39.59 3.5 36.45 C-2.67 30.3 -8.83 24.15 -15 18 C-13.63 14.84 -13.01 14.01 -10 12 C-4.72 17.28 0.56 22.56 6 28 C1.67 22.95 -2.48 18.56 -7.34 14.11 C-9 12 -9 12 -8.75 9.73 C-8.51 9.16 -8.26 8.59 -8 8 C-7.34 8 -6.68 8 -6 8 C-6 7.34 -6 6.68 -6 6 C-5.34 6 -4.68 6 -4 6 C-3.57 5.07 -3.57 5.07 -3.12 4.12 C-2 2 -2 2 0 0 Z " fill="#2D1084" transform="translate(304,363)"/>
<path d="M0 0 C6.49 4.26 11.86 10.5 14.41 17.93 C15.11 22.38 14.85 26.93 14.53 31.42 C14.37 34.97 14.31 36.94 16.73 39.65 C17.76 40.6 18.79 41.55 19.81 42.5 C21.29 43.96 22.75 45.42 24.22 46.89 C25.06 47.73 25.89 48.56 26.76 49.42 C30.04 52.69 33.32 55.96 36.6 59.24 C39.09 61.72 41.58 64.2 44.07 66.68 C46.95 69.55 49.83 72.42 52.7 75.29 C53.6 76.19 54.5 77.08 55.42 78 C56.25 78.82 57.07 79.65 57.92 80.5 C58.65 81.22 59.38 81.95 60.13 82.7 C61.81 84.5 61.81 84.5 62.81 86.5 C64.3 87 64.3 87 65.81 87.5 C65.81 90.5 65.81 90.5 64.34 92.04 C63.67 92.59 63 93.13 62.31 93.69 C57.89 97.39 53.84 101.38 49.81 105.5 C43.07 100.87 37.5 95.35 31.81 89.5 C31.07 88.77 30.34 88.04 29.58 87.29 C26.99 84.68 24.48 82.02 21.98 79.33 C19.44 76.62 16.86 73.93 14.28 71.25 C12.93 69.83 11.59 68.41 10.26 66.97 C3.01 58.47 3.01 58.47 -6.66 53.84 C-9.65 54.11 -12.29 54.74 -15.19 55.5 C-21.29 54.98 -26.14 52.85 -31.19 49.5 C-31.8 49.14 -32.41 48.78 -33.04 48.41 C-38.9 44.71 -41.04 39.93 -43.19 33.5 C-43.26 30.93 -43.28 28.38 -43.25 25.81 C-43.25 25.11 -43.24 24.41 -43.24 23.69 C-43.22 21.96 -43.21 20.23 -43.19 18.5 C-37.61 20.99 -33.52 23.78 -29 27.88 C-26.84 29.81 -24.88 31.38 -22.19 32.5 C-18.34 31.15 -15.75 28.43 -12.88 25.62 C-11.97 24.76 -11.07 23.9 -10.14 23.01 C-7.93 20.74 -7.93 20.74 -8.32 18.32 C-10.74 13.23 -14.05 9.05 -17.57 4.68 C-19.05 2.68 -20.16 0.76 -21.19 -1.5 C-13.83 -4.79 -6.93 -3.8 0 0 Z " fill="#2D1185" transform="translate(227.1875,261.5)"/>
<path d="M0 0 C0.81 -0 1.62 -0.01 2.46 -0.01 C4.18 -0.02 5.9 -0.02 7.62 -0.02 C10.21 -0.02 12.81 -0.04 15.4 -0.06 C42.67 -0.15 42.67 -0.15 52.5 8.54 C53.65 9.84 53.65 9.84 54.82 11.17 C55.68 12.1 56.55 13.02 57.44 13.98 C62.88 21.28 64.7 29.98 63.41 39 C61.25 48.14 56.7 55.86 48.82 61.17 C40.21 65.97 31.26 65.83 21.69 65.92 C20.15 65.95 18.6 65.98 17.06 66.01 C13.31 66.08 9.56 66.13 5.82 66.17 C4.82 69.15 4.71 71.03 4.75 74.13 C4.76 75.1 4.77 76.06 4.78 77.06 C4.8 79.09 4.83 81.11 4.86 83.14 C4.86 84.11 4.87 85.07 4.88 86.07 C4.89 86.95 4.9 87.83 4.91 88.74 C4.82 91.07 4.6 92.98 3.82 95.17 C0.99 96.58 -1.47 96.38 -4.62 96.42 C-5.77 96.44 -6.93 96.47 -8.12 96.5 C-11.18 96.17 -11.18 96.17 -12.85 94.91 C-14.5 92.75 -14.56 91.63 -14.57 88.93 C-14.58 88.08 -14.59 87.23 -14.6 86.35 C-14.59 85.43 -14.59 84.52 -14.58 83.57 C-14.58 82.63 -14.59 81.69 -14.59 80.72 C-14.59 78.72 -14.59 76.73 -14.57 74.73 C-14.56 71.68 -14.57 68.63 -14.59 65.57 C-14.59 63.63 -14.59 61.7 -14.58 59.76 C-14.59 58.85 -14.59 57.93 -14.6 56.99 C-14.59 56.14 -14.58 55.28 -14.57 54.41 C-14.57 53.66 -14.57 52.91 -14.56 52.14 C-14.07 49.56 -13.32 48.69 -11.18 47.17 C-9.07 46.79 -9.07 46.79 -6.61 46.78 C-5.68 46.77 -4.76 46.76 -3.81 46.75 C-2.81 46.76 -1.81 46.76 -0.79 46.76 C0.24 46.75 1.27 46.74 2.33 46.73 C5.62 46.69 8.9 46.68 12.19 46.67 C16.51 46.65 20.83 46.62 25.15 46.57 C26.15 46.58 27.14 46.58 28.16 46.58 C34.99 46.54 34.99 46.54 40.82 43.17 C43.22 39.57 43.9 36.43 43.82 32.17 C43.08 29.36 42 26.81 40.82 24.17 C40.32 22.68 40.32 22.68 39.82 21.17 C34.42 20.07 29.16 19.97 23.68 19.89 C22.23 19.86 22.23 19.86 20.76 19.83 C16.65 19.75 12.54 19.68 8.44 19.62 C5.43 19.56 2.43 19.51 -0.57 19.45 C-1.51 19.44 -2.44 19.42 -3.4 19.41 C-4.69 19.38 -4.69 19.38 -6.01 19.36 C-6.77 19.34 -7.53 19.33 -8.31 19.32 C-10.18 19.17 -10.18 19.17 -12.18 18.17 C-12.18 17.51 -12.18 16.85 -12.18 16.17 C-12.84 16.17 -13.5 16.17 -14.18 16.17 C-14.26 14.23 -14.32 12.29 -14.37 10.36 C-14.41 9.28 -14.44 8.2 -14.48 7.09 C-14.18 4.17 -14.18 4.17 -12.86 2.34 C-8.91 -0.43 -4.61 0.01 0 0 Z " fill="#2D1084" transform="translate(472.18359375,320.83203125)"/>
<path d="M0 0 C5.52 3.13 6.93 7.83 9 13.5 C9.64 15.2 10.29 16.9 10.94 18.59 C11.27 19.47 11.6 20.35 11.94 21.25 C13.05 24.14 14.23 26.99 15.43 29.84 C17.2 34.04 18.89 38.25 20.54 42.5 C20.95 43.57 21.37 44.64 21.8 45.75 C22.65 47.94 23.5 50.14 24.34 52.35 C24.75 53.41 25.17 54.47 25.6 55.56 C25.96 56.51 26.33 57.46 26.71 58.44 C28.11 61.21 29.7 62.94 32 65 C32.24 64.09 32.47 63.19 32.71 62.25 C34.31 56.69 36.47 51.33 38.56 45.94 C39 44.8 39.44 43.66 39.89 42.49 C43.83 32.35 47.89 22.25 52.08 12.21 C52.67 10.78 53.27 9.35 53.85 7.91 C54.99 5.14 55.86 3.14 58 1 C62.23 -0.39 66.61 -0.57 71 0 C73.62 1.62 73.62 1.62 75 4 C74.58 8.58 73.17 12.44 71.41 16.67 C71.02 17.62 71.02 17.62 70.62 18.59 C70.06 19.94 69.5 21.29 68.94 22.64 C67.45 26.23 65.98 29.81 64.5 33.4 C64.21 34.13 63.91 34.85 63.6 35.6 C60.37 43.48 57.33 51.43 54.34 59.41 C52.15 65.2 49.76 70.83 47.16 76.45 C45.56 79.96 44.14 83.53 42.75 87.12 C40.13 93.87 40.13 93.87 39 95 C36.38 95.21 33.81 95.32 31.19 95.38 C30.1 95.43 30.1 95.43 28.99 95.49 C25.47 95.55 23.48 95.41 20.76 93.09 C18.38 88.91 16.47 84.63 14.62 80.19 C14.26 79.34 13.9 78.5 13.53 77.63 C10.97 71.57 8.65 65.43 6.36 59.26 C3.54 51.71 0.5 44.26 -2.56 36.81 C-4.46 32.17 -6.36 27.53 -8.24 22.88 C-8.74 21.63 -9.25 20.38 -9.77 19.13 C-10.49 17.36 -11.2 15.59 -11.9 13.82 C-12.51 12.32 -12.51 12.32 -13.13 10.78 C-14.01 7.97 -14.33 5.92 -14 3 C-10.17 -0.58 -5 -1.09 0 0 Z " fill="#2D1084" transform="translate(946,321)"/>
<path d="M0 0 C3.24 1.13 4.69 2.65 6.94 5.21 C7.65 5.99 8.36 6.77 9.09 7.57 C10.57 9.9 10.57 9.9 10.5 11.89 C9.33 14.41 7.89 16.53 6.25 18.77 C5.63 19.64 5 20.52 4.36 21.41 C3.77 22.23 3.17 23.05 2.57 23.9 C1.21 25.89 -0.11 27.89 -1.43 29.9 C-6.87 26.75 -10.91 22.55 -15.26 18.04 C-17.24 15.86 -17.24 15.86 -19.43 14.9 C-15.1 20.08 -10.67 24.63 -5.43 28.9 C-6.42 30.38 -6.42 30.38 -7.43 31.9 C-7.1 32.56 -6.77 33.22 -6.43 33.9 C-7.48 34.44 -8.53 34.98 -9.61 35.54 C-23.28 43.16 -33.41 53.34 -44.09 64.64 C-44.97 65.56 -44.97 65.56 -45.87 66.5 C-46.99 67.67 -48.1 68.86 -49.2 70.05 C-50.71 71.63 -50.71 71.63 -53.43 73.9 C-55.8 73.75 -55.8 73.75 -57.43 72.9 C-57.16 73.44 -56.88 73.97 -56.6 74.53 C-56.43 76.9 -56.43 76.9 -58.63 79.66 C-59.69 80.72 -60.76 81.77 -61.85 82.8 C-62.41 83.36 -62.98 83.92 -63.56 84.5 C-65.38 86.29 -67.22 88.06 -69.06 89.84 C-70.27 91.03 -71.49 92.22 -72.7 93.41 C-74.95 95.62 -77.2 97.82 -79.46 100.01 C-83.72 104.14 -87.76 108.24 -91.43 112.9 C-92.41 113.92 -93.41 114.92 -94.43 115.9 C-95.11 116.59 -95.11 116.59 -95.8 117.3 C-98.02 119.47 -100.46 121.31 -102.91 123.2 C-104.93 125.45 -105.31 126.88 -105.43 129.9 C-104.27 132.42 -104.27 132.42 -102.5 134.71 C-101.65 135.9 -101.65 135.9 -100.78 137.11 C-100.11 137.99 -100.11 137.99 -99.43 138.9 C-99.76 139.56 -100.09 140.22 -100.43 140.9 C-111.89 136.27 -124.68 124.53 -129.64 113.11 C-129.9 112.38 -130.17 111.65 -130.43 110.9 C-128.76 110.21 -128.76 110.21 -126.43 109.9 C-123.86 111.11 -123.86 111.11 -121.18 112.84 C-120.29 113.4 -119.4 113.97 -118.48 114.55 C-117.81 115 -117.13 115.44 -116.43 115.9 C-110.85 111.13 -105.55 106.17 -100.37 100.96 C-99.7 100.3 -99.03 99.63 -98.35 98.95 C-95.07 95.66 -91.9 92.33 -88.88 88.8 C-85.61 85.02 -82.08 81.68 -78.37 78.34 C-72.73 73.16 -67.42 67.8 -62.27 62.13 C-58.58 58.1 -54.76 54.23 -50.83 50.43 C-40.82 40.74 -31.5 31.52 -24.52 19.3 C-21.13 13.77 -16.66 10.15 -11.48 6.39 C-10.15 5.42 -8.83 4.41 -7.54 3.37 C-3.09 -0.13 -3.09 -0.13 0 0 Z " fill="#2D1185" transform="translate(385.43359375,259.1015625)"/>
<path d="M0 0 C6.43 5.84 9.8 14.26 10.25 22.83 C10.31 32.77 7.87 39.88 1.14 47.22 C-5.76 53.48 -13.35 54.59 -22.49 54.28 C-31.46 52.82 -38.82 49.54 -44.49 42.28 C-49.25 33.98 -49.96 24.45 -47.76 15.22 C-45.05 7.09 -41.21 1.67 -33.71 -2.68 C-23.11 -7.63 -9.64 -6.66 0 0 Z " fill="#FCFDFF" transform="translate(897.48828125,345.71875)"/>
<path d="M0 0 C4.14 -0.07 8.29 -0.13 12.43 -0.16 C13.84 -0.18 15.25 -0.2 16.65 -0.23 C18.69 -0.26 20.72 -0.28 22.75 -0.29 C23.97 -0.31 25.19 -0.32 26.45 -0.34 C31.01 0.1 35.24 1.22 38.56 4.58 C40.8 8.85 41.88 12.09 41 17 C39.07 20.12 36.91 23.33 33.34 24.58 C30.16 25.15 27.09 25.13 23.86 25.13 C22.84 25.13 22.84 25.13 21.8 25.14 C20.37 25.14 18.94 25.13 17.51 25.13 C15.31 25.12 13.11 25.13 10.91 25.14 C9.52 25.14 8.13 25.13 6.74 25.13 C5.47 25.13 4.2 25.13 2.9 25.13 C0 25 0 25 -1 24 C-1.1 22.39 -1.13 20.77 -1.13 19.16 C-1.13 18.18 -1.14 17.2 -1.14 16.19 C-1.13 15.16 -1.13 14.13 -1.12 13.06 C-1.13 12.03 -1.13 11.01 -1.14 9.95 C-1.14 8.97 -1.13 7.98 -1.13 6.97 C-1.13 6.07 -1.13 5.16 -1.13 4.23 C-1 2 -1 2 0 0 Z " fill="#FCFDFF" transform="translate(568,340)"/>
<path d="M0 0 C4.55 1.37 6.22 3.21 8.81 7.12 C13.39 13.7 18.32 19.26 24.94 23.81 C28 26 28 26 29 29 C31 30.21 31 30.21 33 31 C26.9 37.83 26.9 37.83 22.24 38.24 C19.77 37.97 17.41 37.59 15 37 C15 36.34 15 35.68 15 35 C14.43 34.74 13.86 34.49 13.27 34.23 C4.06 29.26 -3.76 19.93 -7 10 C-6.59 6.63 -5.38 5.04 -2.94 2.75 C-2.39 2.23 -1.84 1.71 -1.28 1.17 C-0.65 0.59 -0.65 0.59 0 0 Z " fill="#381C8B" transform="translate(252,371)"/>
<path d="M0 0 C3.25 0.82 3.25 0.82 4.25 1.82 C4.61 4.84 4.59 6.33 2.84 8.86 C1.85 9.86 1.85 9.86 0.84 10.88 C0.1 11.64 -0.65 12.4 -1.41 13.18 C-2.64 14.39 -2.64 14.39 -3.89 15.62 C-5.13 16.88 -5.13 16.88 -6.41 18.16 C-8.17 19.92 -9.94 21.68 -11.71 23.43 C-14.43 26.12 -17.12 28.84 -19.8 31.56 C-21.52 33.27 -23.23 34.98 -24.95 36.68 C-25.75 37.5 -26.56 38.32 -27.39 39.16 C-28.15 39.9 -28.91 40.64 -29.69 41.41 C-30.36 42.07 -31.02 42.73 -31.71 43.41 C-34.27 45.18 -35.69 45.25 -38.75 44.82 C-41.06 42.82 -41.06 42.82 -42.75 40.82 C-40.35 36.32 -37.28 33.05 -33.69 29.51 C-33.14 28.96 -32.6 28.41 -32.04 27.84 C-28 23.82 -28 23.82 -25.75 23.82 C-25.51 23.26 -25.27 22.7 -25.02 22.12 C-22.32 17.24 -17.94 13.47 -14.06 9.51 C-12.73 8.09 -12.73 8.09 -11.38 6.65 C-10.51 5.76 -9.63 4.87 -8.74 3.96 C-7.95 3.14 -7.16 2.32 -6.35 1.48 C-3.75 -0.18 -3.75 -0.18 0 0 Z " fill="#2B0F82" transform="translate(239.749267578125,412.178955078125)"/>
<path d="M0 0 C3.26 1.12 4.69 2.63 6.96 5.2 C7.67 5.98 8.38 6.76 9.11 7.56 C10.58 9.89 10.58 9.89 10.52 11.88 C9.35 14.4 7.91 16.51 6.27 18.76 C5.33 20.07 5.33 20.07 4.37 21.4 C3.78 22.22 3.19 23.04 2.58 23.89 C1.23 25.87 -0.1 27.88 -1.42 29.89 C-6.85 26.74 -10.9 22.53 -15.25 18.03 C-17.23 15.85 -17.23 15.85 -19.42 14.89 C-15.09 20.07 -10.65 24.61 -5.42 28.89 C-6.41 29.88 -7.4 30.87 -8.42 31.89 C-8.81 31.16 -9.2 30.44 -9.61 29.7 C-11.57 26.64 -13.79 24.39 -16.42 21.89 C-17.42 20.89 -18.42 19.89 -19.42 18.89 C-20.41 19.22 -21.4 19.55 -22.42 19.89 C-22.2 15.92 -21.86 14.31 -18.94 11.51 C-17.9 10.79 -16.86 10.07 -15.79 9.32 C-15.25 8.94 -14.7 8.56 -14.14 8.17 C-12.57 7.07 -11 5.98 -9.42 4.89 C-8.1 3.85 -6.79 2.81 -5.48 1.76 C-2.42 -0.11 -2.42 -0.11 0 0 Z " fill="#2D1084" transform="translate(385.41796875,259.11328125)"/>
<path d="M0 0 C5.61 2.5 9.28 6.2 13 11 C13.6 11.6 14.2 12.2 14.81 12.81 C17.48 15.48 19.88 18.32 22.32 21.2 C24.07 23.21 24.07 23.21 27 25 C27 25.66 27 26.32 27 27 C27.66 27 28.32 27 29 27 C31.68 29.47 34.03 32.03 36.31 34.88 C40.34 39.8 45.39 43.7 50.31 47.69 C52.62 49.68 54.32 51.48 56 54 C53 54 53 54 51.39 52.69 C50.87 52.13 50.35 51.57 49.81 51 C49.02 50.16 49.02 50.16 48.21 49.31 C47.61 48.66 47.61 48.66 47 48 C46.34 48.66 45.68 49.32 45 50 C45 49.34 45 48.68 45 48 C44.34 48 43.68 48 43 48 C44.65 50.31 46.3 52.62 48 55 C44.69 53.56 42.56 51.78 40.06 49.19 C39.37 48.48 38.68 47.77 37.97 47.04 C37 46.03 37 46.03 36 45 C35 44.04 34 43.08 33 42.12 C31 40 31 40 31 38 C30.01 37.67 29.02 37.34 28 37 C28 36.34 28 35.68 28 35 C27.42 34.75 26.85 34.5 26.25 34.25 C23.67 32.82 21.94 31.22 20 29 C20 28.34 20 27.68 20 27 C19.44 26.77 18.89 26.55 18.31 26.31 C15.97 24.98 14.37 23.42 12.5 21.51 C10.83 19.83 9.13 18.21 7.41 16.59 C6.15 15.37 4.89 14.16 3.62 12.94 C2.97 12.33 2.32 11.71 1.64 11.08 C1.03 10.49 0.42 9.89 -0.21 9.28 C-0.77 8.74 -1.33 8.21 -1.91 7.66 C-3 6 -3 6 -2.67 3.8 C-2.45 3.2 -2.23 2.61 -2 2 C-1.34 2 -0.68 2 0 2 C0 1.34 0 0.68 0 0 Z " fill="#271371" transform="translate(298,369)"/>
<path d="M0 0 C4.21 1.72 6.88 3.58 9.75 7.06 C14.35 12.39 19.26 17.35 24.25 22.31 C25.03 23.09 25.81 23.87 26.62 24.67 C30.6 28.64 30.6 28.64 34.62 32.58 C36.48 34.39 37.92 35.83 39.06 38.19 C40.29 40.56 41.64 40.86 44 42 C45.75 44.12 45.75 44.12 47 46 C45.02 47.65 43.04 49.3 41 51 C40.67 50.01 40.34 49.02 40 48 C38.31 46.82 36.62 45.64 34.92 44.47 C33.02 43.02 31.7 41.59 30.2 39.74 C26.66 35.61 22.84 31.84 18.94 28.05 C17.63 26.78 16.33 25.51 15.03 24.23 C13 22.26 10.97 20.29 8.93 18.33 C6.94 16.42 4.97 14.49 3 12.55 C2.38 11.97 1.76 11.38 1.13 10.78 C-0.56 9.1 -0.56 9.1 -3 6 C-3 3.15 -3 3.15 -2 1 C-1.34 0.67 -0.68 0.34 0 0 Z " fill="#210C6D" transform="translate(240,311)"/>
<path d="M0 0 C0.66 0 1.32 0 2 0 C3.51 3.6 5.01 7.21 6.5 10.81 C7.14 12.35 7.14 12.35 7.8 13.92 C8.41 15.39 8.41 15.39 9.03 16.89 C9.41 17.8 9.79 18.71 10.17 19.64 C11 22 11 22 11 25 C4.73 25 -1.54 25 -8 25 C-9.23 21.3 -8.62 20.42 -7.13 16.89 C-6.72 15.91 -6.31 14.93 -5.89 13.92 C-5.45 12.89 -5.01 11.87 -4.56 10.81 C-4.13 9.78 -3.69 8.74 -3.25 7.67 C-2.17 5.11 -1.09 2.55 0 0 Z " fill="#FCFDFF" transform="translate(1068,349)"/>
<path d="M0 0 C5.57 4.63 10.67 9.59 15.75 14.75 C17.24 16.27 18.74 17.78 20.23 19.3 C20.89 19.96 21.54 20.62 22.21 21.31 C24.1 23.19 24.1 23.19 27 25 C27.33 25.99 27.66 26.98 28 28 C28.99 28.66 29.98 29.32 31 30 C29.35 31.32 27.7 32.64 26 34 C13.88 23.15 13.88 23.15 9.44 17.62 C7.12 15.01 4.38 12.92 1.64 10.77 C-0.44 8.52 -0.75 7.03 -1 4 C-0.7 2.66 -0.37 1.32 0 0 Z " fill="#2E1186" transform="translate(250,333)"/>
<path d="M0 0 C2.48 0.99 2.48 0.99 5 2 C5 2.66 5 3.32 5 4 C5.66 4 6.32 4 7 4 C9.68 6.47 12.03 9.03 14.31 11.88 C18.34 16.8 23.39 20.7 28.31 24.69 C30.62 26.68 32.32 28.48 34 31 C31 31 31 31 29.39 29.69 C28.87 29.13 28.35 28.57 27.81 28 C27.28 27.44 26.75 26.89 26.21 26.31 C25.81 25.88 25.41 25.45 25 25 C24.34 25.66 23.68 26.32 23 27 C23 26.34 23 25.68 23 25 C22.34 25 21.68 25 21 25 C23.48 28.46 23.48 28.46 26 32 C22.69 30.56 20.56 28.78 18.06 26.19 C17.37 25.48 16.68 24.77 15.97 24.04 C15.32 23.36 14.67 22.69 14 22 C13 21.04 12 20.08 11 19.12 C9 17 9 17 9 15 C8.01 14.67 7.02 14.34 6 14 C5.88 13.4 5.75 12.8 5.62 12.19 C5.15 9.73 5.15 9.73 2.5 8.06 C0 6 0 6 -0.88 3.31 C-0.92 2.55 -0.96 1.79 -1 1 C-0.67 0.67 -0.34 0.34 0 0 Z " fill="#36227D" transform="translate(320,392)"/>
<path d="M0 0 C0.66 0 1.32 0 2 0 C2.26 1 2.26 1 2.53 2.02 C4.69 6.4 7.99 9.35 11.46 12.75 C12.2 13.49 12.94 14.22 13.7 14.98 C16.06 17.33 18.44 19.66 20.81 22 C22.4 23.57 23.99 25.15 25.57 26.72 C29.13 30.24 32.69 33.76 36.26 37.28 C37.79 38.79 39.3 40.32 40.8 41.86 C43.01 44.14 43.01 44.14 46 46 C46 46.99 46 47.98 46 49 C44.06 48.69 44.06 48.69 42 48 C41.67 47.01 41.34 46.02 41 45 C39.41 43.38 39.41 43.38 37.44 41.8 C30.72 36.09 24.55 29.85 18.3 23.65 C16.76 22.12 15.21 20.61 13.66 19.09 C11.41 16.89 9.17 14.68 6.94 12.46 C6.24 11.79 5.54 11.11 4.83 10.42 C4.19 9.78 3.56 9.14 2.9 8.49 C2.34 7.93 1.78 7.38 1.2 6.81 C-0.37 4.44 -0.22 2.78 0 0 Z " fill="#B7ACD9" transform="translate(235,313)"/>
<path d="M0 0 C2 0 2 0 4.12 1.94 C6.44 4.34 8.62 6.86 10.81 9.38 C14 13 17.34 16.21 21.04 19.3 C23.48 21.42 25.73 23.7 28 26 C28.93 26.91 29.86 27.82 30.82 28.75 C31.78 29.69 32.73 30.63 33.69 31.56 C34.17 32.03 34.66 32.5 35.16 32.98 C37.68 35.47 39.67 37.69 41 41 C37.23 39.74 35.78 37.84 33 35 C31.14 33.42 29.26 31.87 27.36 30.33 C26.91 29.89 26.46 29.45 26 29 C26 28.34 26 27.68 26 27 C25.44 26.77 24.89 26.55 24.31 26.31 C21.35 24.63 19.34 22.46 17 20 C16.4 19.44 15.8 18.89 15.19 18.31 C14 17 14 17 14 15 C13.34 15 12.68 15 12 15 C12 14.34 12 13.68 12 13 C11.44 12.77 10.89 12.55 10.31 12.31 C6.32 10.04 3.46 7.38 2 3 C1.34 2.67 0.68 2.34 0 2 C0 1.34 0 0.68 0 0 Z " fill="#B8ADD9" transform="translate(313,381)"/>
<path d="M0 0 C2.3 -0.21 2.3 -0.21 5 0 C6.67 1.41 6.67 1.41 8.2 3.39 C10.9 6.73 13.72 9.77 16.8 12.76 C17.63 13.57 18.46 14.38 19.32 15.21 C21.04 16.88 22.77 18.54 24.5 20.2 C25.32 21 26.14 21.81 26.99 22.64 C27.74 23.36 28.48 24.07 29.25 24.82 C31.2 27.25 31.66 28.93 32 32 C25.53 26.71 19.68 20.84 13.79 14.92 C12.05 13.17 10.3 11.43 8.54 9.68 C7.44 8.57 6.33 7.46 5.22 6.36 C4.44 5.57 4.44 5.57 3.63 4.77 C0 1.11 0 1.11 0 0 Z " fill="#280E7C" transform="translate(242,315)"/>
<path d="M0 0 C3.73 3.12 7.4 6.29 10.94 9.62 C11.52 10.17 12.11 10.72 12.71 11.29 C14 13 14 13 14 17 C11.81 17.81 11.81 17.81 9 18 C6.5 15.88 6.5 15.88 4 13 C3.07 12.15 2.14 11.31 1.19 10.44 C-1 8 -1 8 -1 4 C-0.7 2.66 -0.38 1.32 0 0 Z " fill="#280E7C" transform="translate(250,333)"/>
<path d="M0 0 C4.98 0.4 6.76 2.48 9.94 6.19 C10.89 7.28 11.85 8.36 12.82 9.45 C13.33 10.02 13.84 10.6 14.36 11.19 C17.27 14.39 20.32 17.45 23.38 20.5 C23.96 21.09 24.54 21.67 25.14 22.28 C27.58 24.71 30 27 32.7 29.15 C34.96 30.97 36.67 32.82 38.5 35.06 C41.07 38.08 43.38 40.24 47 42 C46.67 42.99 46.34 43.98 46 45 C42.63 43.88 41.85 42.93 39.62 40.25 C36.9 36.99 34.02 34 31 31 C20.67 20.67 10.33 10.33 0 0 Z " fill="#F5F5FB" transform="translate(241,311)"/>
<path d="M0 0 C0.66 1.32 1.32 2.64 2 4 C1.18 3.76 1.18 3.76 0.34 3.51 C-3.34 2.72 -5.88 2.34 -9.2 4.31 C-11.52 6.36 -13.64 8.52 -15.75 10.78 C-16.54 11.58 -17.33 12.38 -18.14 13.2 C-20.64 15.76 -23.1 18.35 -25.56 20.94 C-27.25 22.68 -28.95 24.42 -30.64 26.15 C-34.79 30.41 -38.91 34.69 -43 39 C-43 36 -43 36 -41.68 34.32 C-41.07 33.71 -40.45 33.09 -39.82 32.46 C-39.12 31.77 -38.43 31.07 -37.71 30.35 C-36.96 29.6 -36.2 28.86 -35.41 28.09 C-34.26 26.93 -34.26 26.93 -33.07 25.75 C-31.44 24.12 -29.8 22.5 -28.16 20.88 C-25.64 18.39 -23.13 15.89 -20.62 13.38 C-19.03 11.8 -17.44 10.23 -15.85 8.65 C-15.1 7.9 -14.34 7.15 -13.56 6.37 C-12.86 5.68 -12.16 4.99 -11.44 4.28 C-10.82 3.67 -10.21 3.06 -9.57 2.43 C-6.49 -0.37 -4.04 -0.09 0 0 Z " fill="#C2B9DE" transform="translate(242,410)"/>
<path d="M0 0 C3.85 1.57 6.12 4.06 9 7 C9.99 7.8 10.98 8.61 12 9.44 C15.08 12.07 17.45 14.86 20 18 C21.66 19.68 23.32 21.34 25 23 C25.9 23.92 26.79 24.84 27.72 25.79 C28.64 26.72 29.55 27.66 30.5 28.62 C31.42 29.57 32.34 30.51 33.28 31.48 C35.75 33.77 38.13 35.29 41 37 C41 37.66 41 38.32 41 39 C37.27 37.71 34.9 36.28 32.13 33.48 C31.41 32.77 30.69 32.05 29.94 31.31 C29.18 30.54 28.42 29.76 27.64 28.96 C26.84 28.17 26.05 27.38 25.24 26.56 C23.57 24.88 21.9 23.21 20.24 21.52 C17.69 18.94 15.12 16.36 12.55 13.79 C10.93 12.16 9.32 10.53 7.7 8.9 C6.93 8.13 6.16 7.35 5.36 6.55 C4.66 5.84 3.95 5.12 3.23 4.39 C2.6 3.76 1.98 3.12 1.33 2.47 C0 1 0 1 0 0 Z " fill="#F6F7FC" transform="translate(311,392)"/>
<path d="M0 0 C0.33 0.99 0.66 1.98 1 3 C-6.59 10.59 -14.18 18.18 -22 26 C-22.66 25.34 -23.32 24.68 -24 24 C-16.08 16.08 -8.16 8.16 0 0 Z " fill="#270D7A" transform="translate(209,410)"/>
<path d="M0 0 C1.72 1.21 1.72 1.21 3.5 2.94 C6.2 5.68 6.2 5.68 10 6 C10.99 7.49 10.99 7.49 12 9 C11.12 12.19 11.12 12.19 10 15 C9.67 13.68 9.34 12.36 9 11 C7.64 11.19 7.64 11.19 6.25 11.38 C3 11 3 11 0.75 8.25 C-2.08 3 -2.08 3 -3 1 C-2.01 0.67 -1.02 0.34 0 0 Z " fill="#483093" transform="translate(344,416)"/>
<path d="M0 0 C3.81 1.44 5.27 3.35 7 7 C6.67 7.66 6.34 8.32 6 9 C3.52 8.01 3.52 8.01 1 7 C1.41 7.54 1.82 8.09 2.24 8.64 C2.78 9.36 3.32 10.08 3.88 10.81 C4.68 11.87 4.68 11.87 5.49 12.96 C6.71 14.6 7.86 16.3 9 18 C5.16 16.49 3.51 14.2 1 11 C-0.63 9.63 -2.29 8.28 -4 7 C-3.44 3.73 -2.5 2.17 0 0 Z " fill="#311686" transform="translate(304,363)"/>
<path d="M0 0 C1.32 0.33 2.64 0.66 4 1 C3.01 1.99 2.02 2.98 1 4 C0.67 2.68 0.34 1.36 0 0 Z " fill="#F4F4FA" transform="translate(328,332)"/>
<path d="M0 0 C0.76 0 1.52 0.01 2.31 0.01 C3.08 0.02 3.85 0.02 4.64 0.02 C10.27 0.06 15.78 0.43 21.37 1.14 C21.37 1.47 21.37 1.8 21.37 2.14 C15.4 2.93 9.46 3.27 3.44 3.33 C2.17 3.34 0.9 3.35 -0.4 3.37 C-3.63 3.14 -3.63 3.14 -6.63 1.14 C-4.83 -0.66 -2.39 0.01 0 0 Z " fill="#17065F" transform="translate(574.627197265625,364.861328125)"/>
<path d="M0 0 C3.85 1.57 6.2 4.03 9.06 7 C11.65 9.68 13.89 11.93 17 14 C17 14.99 17 15.98 17 17 C15.02 17.33 13.04 17.66 11 18 C11.66 16.68 12.32 15.36 13 14 C12.48 13.55 11.96 13.11 11.43 12.64 C3.26 5.57 3.26 5.57 0 2 C0 1.34 0 0.68 0 0 Z " fill="#AFA3D2" transform="translate(366,274)"/>
<path d="M0 0 C0.23 0.56 0.46 1.11 0.69 1.68 C2.37 4.65 4.5 6.69 6.94 9.06 C7.81 9.92 8.69 10.78 9.59 11.66 C10.39 12.43 11.18 13.2 12 14 C13 15 14 16 15 17 C14.01 17.66 13.02 18.32 12 19 C11.61 18.28 11.22 17.56 10.81 16.81 C8.84 13.76 6.63 11.5 4 9 C3 8 2 7 1 6 C0.01 6.33 -0.98 6.66 -2 7 C-1.12 1.12 -1.12 1.12 0 0 Z " fill="#17065F" transform="translate(365,272)"/>
<path d="M0 0 C2 0 2 0 4.12 1.94 C7.88 5.84 11.43 9.93 15 14 C14.01 14.33 13.02 14.66 12 15 C12 14.34 12 13.68 12 13 C11.44 12.77 10.89 12.55 10.31 12.31 C6.32 10.04 3.46 7.38 2 3 C1.34 2.67 0.68 2.34 0 2 C0 1.34 0 0.68 0 0 Z " fill="#DDD9EE" transform="translate(313,381)"/>
<path d="M0 0 C3.63 0 7.26 0 11 0 C11 0.66 11 1.32 11 2 C11.66 2.33 12.32 2.66 13 3 C7.72 3 2.44 3 -3 3 C-2.01 2.67 -1.02 2.34 0 2 C0 1.34 0 0.68 0 0 Z " fill="#170660" transform="translate(373,423)"/>
<path d="M0 0 C5.39 2.28 9.77 6.16 13 11 C10 11 10 11 8.39 9.69 C7.87 9.13 7.35 8.57 6.81 8 C6.28 7.44 5.75 6.89 5.21 6.31 C4.81 5.88 4.41 5.45 4 5 C3.34 5.66 2.68 6.32 2 7 C2 6.34 2 5.68 2 5 C1.01 4.67 0.02 4.34 -1 4 C-0.67 3.34 -0.34 2.68 0 2 C0 1.34 0 0.68 0 0 Z " fill="#1C0A64" transform="translate(341,412)"/>
<path d="M0 0 C3.54 0.58 5.21 1.83 7.69 4.38 C8.29 4.98 8.89 5.59 9.51 6.21 C11 8 11 8 12 11 C7.73 10.53 5.83 8.04 3 5 C2.4 4.44 1.8 3.89 1.19 3.31 C0 2 0 2 0 0 Z " fill="#B3A7D6" transform="translate(327,396)"/>
<path d="M0 0 C3.34 1.45 5.48 3.27 8 5.88 C8.66 6.55 9.32 7.23 10 7.93 C10.66 8.61 11.32 9.3 12 10 C13.33 11.34 14.66 12.67 16 14 C15.01 14 14.02 14 13 14 C13 13.34 13 12.68 13 12 C12.16 11.63 12.16 11.63 11.3 11.25 C8.61 9.79 6.54 8.03 4.25 6 C3.45 5.3 2.65 4.6 1.83 3.88 C0 2 0 2 0 0 Z " fill="#B6ABD8" transform="translate(254,394)"/>
<path d="M0 0 C1.13 0.96 2.25 1.92 3.38 2.88 C4 3.41 4.63 3.94 5.27 4.49 C6.56 5.61 7.79 6.79 9 8 C9.66 7.67 10.32 7.34 11 7 C13.48 8.98 13.48 8.98 16 11 C15.67 11.66 15.34 12.32 15 13 C13.67 12.33 12.33 11.67 11 11 C10.06 10.58 10.06 10.58 9.09 10.15 C6.75 8.86 5.13 7.4 3.25 5.5 C2.64 4.89 2.02 4.28 1.39 3.66 C0 2 0 2 0 0 Z " fill="#1D0B67" transform="translate(264,338)"/>
<path d="M0 0 C4.67 4.67 9.33 9.33 14 14 C9.65 14 8 11.72 4.88 8.88 C2.28 6.27 0 3.8 0 0 Z " fill="#FCFDFF" transform="translate(259,378)"/>
<path d="M0 0 C0.33 0 0.66 0 1 0 C1 6.93 1 13.86 1 21 C0.67 21 0.34 21 0 21 C0 18.69 0 16.38 0 14 C-0.66 14 -1.32 14 -2 14 C-2 11.69 -2 9.38 -2 7 C-1.34 7 -0.68 7 0 7 C0 4.69 0 2.38 0 0 Z " fill="#190762" transform="translate(832,360)"/>
<path d="M0 0 C8.63 5 8.63 5 11 9 C9.02 9.99 9.02 9.99 7 11 C6.66 10.16 6.66 10.16 6.31 9.31 C5.01 6.78 5.01 6.78 2.38 4.38 C1.59 3.59 0.81 2.81 0 2 C0 1.34 0 0.68 0 0 Z " fill="#341C82" transform="translate(276,348)"/>
<path d="M0 0 C3.67 1.5 5.69 3.64 8.25 6.62 C8.96 7.44 9.66 8.26 10.39 9.1 C10.92 9.73 11.45 10.35 12 11 C11.01 11 10.02 11 9 11 C7.73 9.53 6.46 8.06 5.27 6.53 C3.74 4.68 1.92 3.42 0 2 C0 1.34 0 0.68 0 0 Z " fill="#D8D2EB" transform="translate(301,369)"/>
<path d="M0 0 C0.99 0.33 1.98 0.66 3 1 C3 1.66 3 2.32 3 3 C3.66 3 4.32 3 5 3 C5 3.66 5 4.32 5 5 C5.66 5 6.32 5 7 5 C8.29 6.53 8.29 6.53 9.62 8.5 C10.07 9.15 10.52 9.8 10.98 10.47 C11.48 11.23 11.48 11.23 12 12 C8.6 10.53 6.35 8.62 3.75 6 C3.04 5.3 2.34 4.6 1.61 3.88 C0 2 0 2 0 0 Z " fill="#210A70" transform="translate(334,412)"/>
<path d="M0 0 C4.68 1.48 4.68 1.48 6.31 4.12 C6.54 4.74 6.77 5.36 7 6 C5.68 6 4.36 6 3 6 C0.75 3.5 0.75 3.5 -1 1 C-0.67 0.67 -0.34 0.34 0 0 Z " fill="#210B71" transform="translate(305,369)"/>
</svg>
